<?xml version="1.0" encoding="UTF-8"?>
<svg xmlns="http://www.w3.org/2000/svg" style="display:none">
  <symbol id="icon-pinterest" viewBox="0 0 24 24">
    <path
      d="M12.0025 1C5.92655 1 1 5.92435 1 11.9976C1 16.4997 3.71132 20.3685 7.58674 22.0721C7.55727 21.3062 7.58183 20.3832 7.7783 19.5485C7.98951 18.655 9.19291 13.5538 9.19291 13.5538C9.19291 13.5538 8.83925 12.8518 8.83925 11.8159C8.83925 10.1859 9.78232 8.96831 10.9612 8.96831C11.9632 8.96831 12.4446 9.71949 12.4446 10.6179C12.4446 11.6244 11.8011 13.1267 11.472 14.521C11.1969 15.6896 12.0565 16.6372 13.2107 16.6372C15.2934 16.6372 16.6981 13.9614 16.6981 10.7898C16.6981 8.37916 15.0724 6.57733 12.1203 6.57733C8.78523 6.57733 6.70261 9.0665 6.70261 11.8454C6.70261 12.8027 6.9875 13.4803 7.42956 14.0007C7.63094 14.2413 7.66041 14.3394 7.58674 14.6144C7.5327 14.8156 7.41483 15.3017 7.36079 15.4981C7.28712 15.778 7.06118 15.8762 6.81067 15.7731C5.27327 15.1446 4.55615 13.4656 4.55615 11.5704C4.55615 8.4479 7.19379 4.70186 12.42 4.70186C16.6195 4.70186 19.3849 7.7409 19.3849 11.0009C19.3849 15.3164 16.9831 18.5372 13.4465 18.5372C12.2579 18.5372 11.1429 17.894 10.7598 17.1674C10.7598 17.1674 10.1212 19.7007 9.9837 20.1917C9.75284 21.0411 9.29605 21.8856 8.87854 22.5483C9.89131 22.8469 10.9416 22.9991 11.9975 23C18.0735 23 23 18.0756 23 12.0025C23 5.92925 18.0784 1 12.0025 1Z"
      fill="currentColor" />
  </symbol>
  <symbol id="icon-twitter" viewBox="0 0 24 24">
    <path
      d="M23 5.13282C22.1747 5.49955 21.3016 5.74115 20.4081 5.85C21.347 5.28768 22.0532 4.39433 22.3941 3.33751C21.5063 3.86841 20.5367 4.24092 19.5267 4.43907C19.1015 3.98322 18.5899 3.62059 18.0233 3.3732C17.4568 3.12581 16.8469 2.99884 16.2309 3.00001C13.7366 3.00001 11.7181 5.03438 11.7181 7.54219C11.7163 7.89102 11.7554 8.23881 11.8345 8.57813C10.046 8.49238 8.2946 8.02574 6.69248 7.2081C5.09036 6.39044 3.67276 5.23977 2.53037 3.82969C2.12959 4.52069 1.91764 5.30909 1.91666 6.11251C1.91666 7.68751 2.72013 9.0797 3.93333 9.89532C3.21454 9.87787 2.51048 9.6833 1.88092 9.32813V9.38438C1.88092 11.5875 3.43925 13.4203 5.50175 13.8375C5.1139 13.9432 4.71423 13.9968 4.31283 13.9969C4.02802 13.9974 3.74384 13.9691 3.46446 13.9125C4.03783 15.7172 5.70662 17.0297 7.68341 17.0672C6.07713 18.3332 4.10503 19.0176 2.07708 19.0125C1.71712 19.012 1.35748 18.99 1 18.9469C3.06304 20.2941 5.46115 21.0068 7.9089 21C16.2213 21 20.7624 14.0765 20.7624 8.07188C20.7624 7.87501 20.7573 7.67813 20.7482 7.48594C21.6296 6.84472 22.3921 6.04787 23 5.13282Z"
      fill="currentColor" />
  </symbol>
  <symbol id="icon-fb" viewBox="0 0 24 24">
    <path
      d="M14 13.65H16.8571L18 9.25H14V7.05C14 5.917 14 4.85 16.2857 4.85H18V1.154C17.6274 1.1067 16.2206 1 14.7349 1C11.632 1 9.42857 2.8227 9.42857 6.17V9.25H6V13.65H9.42857V23H14V13.65Z"
      fill="#101750" />
  </symbol>
  <symbol id="yellow-line" viewBox="0 0 32 1">
    <rect width="32" height="1" fill="#F59E0B" />
  </symbol>
  <symbol id="white-border" viewBox="0 0 120 5">
    <path d="M2 2.5H44.5" stroke="#D1FAE5" stroke-width="4" stroke-linecap="round"
      stroke-linejoin="round" />
    <path d="M60.5 2.5H72.5" stroke="#D1FAE5" stroke-width="4" stroke-linecap="round"
      stroke-linejoin="round" />
    <path d="M88.5 2.5H118" stroke="#D1FAE5" stroke-width="4" stroke-linecap="round"
      stroke-linejoin="round" />
  </symbol>
  <symbol id="blue-border" viewBox="0 0 47 79">
    <path d="M2 2H38.5C41.8137 2 44.5 4.68629 44.5 8V77" stroke="#3B82F6" stroke-width="4"
      stroke-linecap="round" stroke-linejoin="round" />
  </symbol>
  <symbol id="yellow-border" viewBox="0 0 44 102">
    <path d="M2 2.5H37.5C39.7091 2.5 41.5 4.29086 41.5 6.5V99.5" stroke="#F59E0B" stroke-width="4"
      stroke-linecap="round" stroke-linejoin="round" />
  </symbol>
  <symbol id="red-border" viewBox="0 0 71 96">
    <path d="M2 94V8.5C2 5.18629 4.68629 2.5 8 2.5H68.5" stroke="#EF4444" stroke-width="4"
      stroke-linecap="round" stroke-linejoin="round" />
  </symbol>
  <symbol id="chevron-down" viewBox="0 0 16 16">
    <path d="M2.99951 5L7.99967 10L12.9998 5" stroke="currentColor" stroke-linecap="round"
      stroke-linejoin="round" />
  </symbol>
  <symbol id="icon-clock" viewBox="0 0 24 24">
    <path
      d="M11.99 2C6.47 2 2 6.48 2 12C2 17.52 6.47 22 11.99 22C17.52 22 22 17.52 22 12C22 6.48 17.52 2 11.99 2ZM16 16C15.9075 16.0927 15.7976 16.1663 15.6766 16.2164C15.5557 16.2666 15.426 16.2924 15.295 16.2924C15.164 16.2924 15.0343 16.2666 14.9134 16.2164C14.7924 16.1663 14.6825 16.0927 14.59 16L11.3 12.71C11.2055 12.6174 11.1303 12.5069 11.0788 12.3851C11.0273 12.2632 11.0005 12.1323 11 12V8C11 7.45 11.45 7 12 7C12.55 7 13 7.45 13 8V11.59L16 14.59C16.39 14.98 16.39 15.61 16 16Z"
      fill="currentColor" />
  </symbol>
  <symbol id="hounter-logo" viewBox="0 0 115 36">
    <path
      d="M0 4C0 1.79086 1.79086 0 4 0H28C30.2091 0 32 1.79086 32 4V8C32 21.2548 21.2548 32 8 32H4C1.79086 32 0 30.2091 0 28V4Z"
      fill="#F59E0B" />
    <path
      d="M4 8C4 5.79086 5.79086 4 8 4H32C34.2091 4 36 5.79086 36 8V12C36 25.2548 25.2548 36 12 36H8C5.79086 36 4 34.2091 4 32V8Z"
      fill="#4BE4C9" />
    <path
      d="M55.952 26V14.8H59.408V26H55.952ZM49.28 26V14.8H52.736V26H49.28ZM50.576 21.92L50.592 18.912H57.904V21.92H50.576Z"
      fill="#1B1C57" />
    <path
      d="M65.9835 26.16C65.0555 26.16 64.2289 25.968 63.5035 25.584C62.7782 25.2 62.2075 24.6774 61.7915 24.016C61.3755 23.344 61.1675 22.576 61.1675 21.712C61.1675 20.848 61.3755 20.0854 61.7915 19.424C62.2075 18.752 62.7782 18.224 63.5035 17.84C64.2289 17.456 65.0555 17.264 65.9835 17.264C66.9115 17.264 67.7329 17.456 68.4475 17.84C69.1729 18.224 69.7382 18.752 70.1435 19.424C70.5595 20.0854 70.7675 20.848 70.7675 21.712C70.7675 22.576 70.5595 23.344 70.1435 24.016C69.7382 24.6774 69.1729 25.2 68.4475 25.584C67.7329 25.968 66.9115 26.16 65.9835 26.16ZM65.9835 23.44C66.2715 23.44 66.5275 23.3654 66.7515 23.216C66.9862 23.0667 67.1675 22.864 67.2955 22.608C67.4235 22.3414 67.4875 22.0427 67.4875 21.712C67.4875 21.3707 67.4235 21.072 67.2955 20.816C67.1675 20.5494 66.9862 20.3414 66.7515 20.192C66.5275 20.0427 66.2715 19.9681 65.9835 19.9681C65.6849 19.9681 65.4182 20.0427 65.1835 20.192C64.9595 20.3414 64.7782 20.5494 64.6395 20.816C64.5115 21.072 64.4475 21.3707 64.4475 21.712C64.4475 22.0427 64.5115 22.3414 64.6395 22.608C64.7782 22.864 64.9595 23.0667 65.1835 23.216C65.4182 23.3654 65.6849 23.44 65.9835 23.44Z"
      fill="#1B1C57" />
    <path
      d="M75.234 26.1761C74.5834 26.1761 74.034 26.0427 73.586 25.776C73.138 25.5094 72.7967 25.12 72.562 24.608C72.3274 24.0854 72.21 23.456 72.21 22.72V17.44H75.458V22.448C75.458 22.6827 75.4954 22.88 75.57 23.04C75.6554 23.2 75.7727 23.3227 75.922 23.408C76.0714 23.4934 76.2527 23.536 76.466 23.536C76.626 23.536 76.77 23.5147 76.898 23.472C77.0367 23.4187 77.154 23.344 77.25 23.248C77.346 23.1521 77.4207 23.0454 77.474 22.928C77.5274 22.8 77.554 22.6667 77.554 22.528V17.44H80.802V26H77.826L77.634 24.272L78.242 24.08C78.1247 24.4854 77.9167 24.8481 77.618 25.168C77.33 25.4774 76.978 25.7227 76.562 25.904C76.146 26.0854 75.7034 26.1761 75.234 26.1761Z"
      fill="#1B1C57" />
    <path
      d="M83.0732 26V17.44H86.0812L86.2412 19.168L85.5532 19.36C85.6705 18.9547 85.8785 18.5974 86.1772 18.288C86.4865 17.968 86.8545 17.7174 87.2812 17.536C87.7078 17.3547 88.1612 17.264 88.6412 17.264C89.2812 17.264 89.8252 17.3974 90.2732 17.664C90.7212 17.9307 91.0572 18.3254 91.2812 18.848C91.5158 19.36 91.6332 19.984 91.6332 20.72V26H88.3852V20.992C88.3852 20.7574 88.3478 20.56 88.2732 20.4C88.1985 20.24 88.0865 20.1174 87.9372 20.032C87.7878 19.9467 87.6118 19.904 87.4092 19.904C87.2492 19.904 87.0998 19.9307 86.9612 19.984C86.8332 20.0267 86.7212 20.096 86.6252 20.192C86.5292 20.288 86.4545 20.3947 86.4012 20.512C86.3478 20.6294 86.3212 20.7627 86.3212 20.912V26H84.7052C84.2998 26 83.9585 26 83.6812 26C83.4145 26 83.2118 26 83.0732 26Z"
      fill="#1B1C57" />
    <path d="M94.1618 26V15.28H97.4098V26H94.1618ZM92.8338 20.16V17.44H98.8178V20.16H92.8338Z"
      fill="#1B1C57" />
    <path
      d="M104.327 26.16C103.335 26.16 102.481 25.968 101.767 25.584C101.052 25.2 100.503 24.6774 100.119 24.016C99.7345 23.344 99.5425 22.576 99.5425 21.712C99.5425 21.072 99.6492 20.48 99.8625 19.936C100.076 19.392 100.375 18.9227 100.759 18.528C101.153 18.1227 101.612 17.8134 102.135 17.6C102.668 17.376 103.249 17.264 103.879 17.264C104.508 17.264 105.079 17.376 105.591 17.6C106.113 17.8134 106.561 18.1227 106.935 18.528C107.308 18.9227 107.591 19.392 107.783 19.936C107.985 20.48 108.076 21.072 108.055 21.712L108.039 22.384H101.335L100.967 20.864H105.463L105.159 21.184V20.896C105.159 20.6934 105.105 20.5174 104.999 20.368C104.903 20.208 104.764 20.0854 104.583 20C104.401 19.9147 104.188 19.872 103.943 19.872C103.633 19.872 103.372 19.936 103.159 20.064C102.945 20.192 102.78 20.3734 102.663 20.608C102.556 20.8427 102.503 21.1254 102.503 21.456C102.503 21.84 102.583 22.176 102.743 22.464C102.913 22.752 103.159 22.976 103.479 23.136C103.809 23.296 104.215 23.376 104.695 23.376C105.015 23.376 105.287 23.3387 105.511 23.264C105.745 23.1787 105.991 23.0454 106.247 22.864L107.735 24.96C107.34 25.2694 106.951 25.5094 106.567 25.68C106.193 25.8507 105.82 25.9734 105.447 26.048C105.084 26.1227 104.711 26.16 104.327 26.16Z"
      fill="#1B1C57" />
    <path
      d="M109.558 26V17.44H112.566L112.758 20.288L112.038 19.84C112.176 19.3494 112.395 18.912 112.694 18.528C112.992 18.1334 113.35 17.824 113.766 17.6C114.192 17.376 114.646 17.264 115.126 17.264C115.318 17.264 115.499 17.28 115.67 17.312C115.84 17.3334 116.006 17.3654 116.166 17.408L115.27 21.008C115.163 20.9334 114.992 20.864 114.758 20.8C114.534 20.736 114.288 20.704 114.022 20.704C113.83 20.704 113.654 20.736 113.494 20.8C113.344 20.8534 113.216 20.9387 113.11 21.056C113.014 21.1734 112.939 21.312 112.886 21.472C112.832 21.6321 112.806 21.8187 112.806 22.032V26H109.558Z"
      fill="#1B1C57" />
  </symbol>
  <symbol id="icon-deals" viewBox="0 0 24 24">
    <path
      d="M12.8 4.8H2.79998V4.4L11.6 3.696V4.4H12.8V3.2C12.8 2.32 12.0872 1.7024 11.2168 1.8264L3.18398 2.9736C2.31278 3.0984 1.59998 3.92 1.59998 4.8V12.8C1.59998 13.2244 1.76855 13.6313 2.0686 13.9314C2.36866 14.2314 2.77563 14.4 3.19998 14.4H12.8C13.2243 14.4 13.6313 14.2314 13.9313 13.9314C14.2314 13.6313 14.4 13.2244 14.4 12.8V6.4C14.4 5.97566 14.2314 5.56869 13.9313 5.26863C13.6313 4.96858 13.2243 4.8 12.8 4.8ZM11.6 10.4048C11.4423 10.4048 11.2863 10.3737 11.1406 10.3133C10.995 10.2529 10.8627 10.1644 10.7513 10.0529C10.6399 9.94143 10.5515 9.80907 10.4912 9.66341C10.4309 9.51775 10.3999 9.36164 10.4 9.204C10.4 9.04637 10.4311 8.89028 10.4915 8.74466C10.5519 8.59904 10.6403 8.46674 10.7518 8.35531C10.8634 8.24388 10.9957 8.1555 11.1414 8.09523C11.287 8.03495 11.4431 8.00395 11.6008 8.004C11.9191 8.00411 12.2244 8.13068 12.4495 8.35588C12.6745 8.58107 12.8009 8.88644 12.8008 9.2048C12.8007 9.52317 12.6741 9.82845 12.4489 10.0535C12.2237 10.2785 11.9183 10.4049 11.6 10.4048Z"
      fill="currentColor" />
  </symbol>
  <symbol id="icon-user" viewBox="0 0 16 16">
    <path
      d="M8 2C8.49445 2 8.9778 2.14662 9.38893 2.42133C9.80005 2.69603 10.1205 3.08648 10.3097 3.54329C10.4989 4.00011 10.5484 4.50277 10.452 4.98773C10.3555 5.47268 10.1174 5.91814 9.76777 6.26777C9.41814 6.6174 8.97268 6.8555 8.48773 6.95196C8.00278 7.04843 7.50011 6.99892 7.04329 6.8097C6.58648 6.62048 6.19603 6.30005 5.92133 5.88893C5.64662 5.4778 5.5 4.99445 5.5 4.5C5.5 3.83696 5.76339 3.20107 6.23223 2.73223C6.70108 2.26339 7.33696 2 8 2ZM8 1C7.30777 1 6.63108 1.20527 6.05551 1.58986C5.47993 1.97444 5.03133 2.52107 4.76642 3.16061C4.50152 3.80015 4.4322 4.50388 4.56725 5.18282C4.7023 5.86175 5.03564 6.48539 5.52513 6.97487C6.01461 7.46436 6.63825 7.7977 7.31719 7.93275C7.99612 8.0678 8.69985 7.99848 9.33939 7.73358C9.97893 7.46867 10.5256 7.02007 10.9101 6.4445C11.2947 5.86892 11.5 5.19223 11.5 4.5C11.5 3.57174 11.1313 2.6815 10.4749 2.02513C9.8185 1.36875 8.92826 1 8 1Z"
      fill="currentColor" />
    <path
      d="M13 15H12V12.5C12 12.1717 11.9353 11.8466 11.8097 11.5433C11.6841 11.24 11.4999 10.9644 11.2678 10.7322C11.0356 10.5001 10.76 10.3159 10.4567 10.1903C10.1534 10.0647 9.8283 10 9.5 10H6.5C5.83696 10 5.20107 10.2634 4.73223 10.7322C4.26339 11.2011 4 11.837 4 12.5V15H3V12.5C3 11.5717 3.36875 10.6815 4.02513 10.0251C4.6815 9.36875 5.57174 9 6.5 9H9.5C10.4283 9 11.3185 9.36875 11.9749 10.0251C12.6313 10.6815 13 11.5717 13 12.5V15Z"
      fill="currentColor" />
  </symbol>
  <symbol id="icon-house" viewBox="0 0 16 16">
    <path
      d="M8 2C8.49445 2 8.9778 2.14662 9.38893 2.42133C9.80005 2.69603 10.1205 3.08648 10.3097 3.54329C10.4989 4.00011 10.5484 4.50277 10.452 4.98773C10.3555 5.47268 10.1174 5.91814 9.76777 6.26777C9.41814 6.6174 8.97268 6.8555 8.48773 6.95196C8.00278 7.04843 7.50011 6.99892 7.04329 6.8097C6.58648 6.62048 6.19603 6.30005 5.92133 5.88893C5.64662 5.4778 5.5 4.99445 5.5 4.5C5.5 3.83696 5.76339 3.20107 6.23223 2.73223C6.70108 2.26339 7.33696 2 8 2ZM8 1C7.30777 1 6.63108 1.20527 6.05551 1.58986C5.47993 1.97444 5.03133 2.52107 4.76642 3.16061C4.50152 3.80015 4.4322 4.50388 4.56725 5.18282C4.7023 5.86175 5.03564 6.48539 5.52513 6.97487C6.01461 7.46436 6.63825 7.7977 7.31719 7.93275C7.99612 8.0678 8.69985 7.99848 9.33939 7.73358C9.97893 7.46867 10.5256 7.02007 10.9101 6.4445C11.2947 5.86892 11.5 5.19223 11.5 4.5C11.5 3.57174 11.1313 2.6815 10.4749 2.02513C9.8185 1.36875 8.92826 1 8 1Z"
      fill="currentColor" />
    <path
      d="M13 15H12V12.5C12 12.1717 11.9353 11.8466 11.8097 11.5433C11.6841 11.24 11.4999 10.9644 11.2678 10.7322C11.0356 10.5001 10.76 10.3159 10.4567 10.1903C10.1534 10.0647 9.8283 10 9.5 10H6.5C5.83696 10 5.20107 10.2634 4.73223 10.7322C4.26339 11.2011 4 11.837 4 12.5V15H3V12.5C3 11.5717 3.36875 10.6815 4.02513 10.0251C4.6815 9.36875 5.57174 9 6.5 9H9.5C10.4283 9 11.3185 9.36875 11.9749 10.0251C12.6313 10.6815 13 11.5717 13 12.5V15Z"
      fill="currentColor" />
  </symbol>

  <symbol id="icon-house" viewBox="0 0 24 24">
    <path
      d="M21 10.8319V19.5C20.9999 19.7718 20.9262 20.0386 20.7868 20.272C20.6475 20.5054 20.4476 20.6968 20.2084 20.8259C19.9917 20.9432 19.7485 21.0031 19.5021 20.9999H14.9968C14.7978 20.9999 14.6071 20.9209 14.4664 20.7802C14.3258 20.6396 14.2468 20.4488 14.2468 20.2499V15.7492C14.2468 15.5503 14.1677 15.3596 14.0271 15.2189C13.8864 15.0783 13.6957 14.9992 13.4968 14.9992H10.4968C10.2978 14.9992 10.1071 15.0783 9.96643 15.2189C9.82577 15.3596 9.74676 15.5503 9.74676 15.7492V20.2499C9.74676 20.4488 9.66774 20.6396 9.52709 20.7802C9.38644 20.9209 9.19567 20.9999 8.99676 20.9999H4.50023C4.28758 21.0005 4.07726 20.9555 3.88338 20.8682C3.68951 20.7808 3.51654 20.653 3.37607 20.4934C3.12949 20.2082 2.99574 19.8427 3.00004 19.4657V10.8318C3.0002 10.6228 3.04395 10.4161 3.12849 10.225C3.21302 10.0339 3.33649 9.8625 3.49101 9.72178L10.9904 2.90306C11.2658 2.65074 11.6258 2.51076 11.9994 2.51073C12.373 2.51069 12.733 2.6506 13.0085 2.90288L20.5092 9.72187C20.6636 9.86262 20.7871 10.034 20.8716 10.2251C20.9561 10.4163 20.9999 10.6229 21 10.8319Z"
      fill="currentColor" />
  </symbol>
  <symbol id="icon-email" viewBox="0 0 16 16">
    <path
      d="M12.9 2H3.1C2.54305 2 2.0089 2.23705 1.61508 2.65901C1.22125 3.08097 1 3.65326 1 4.25V11.75C1 12.3467 1.22125 12.919 1.61508 13.341C2.0089 13.7629 2.54305 14 3.1 14H12.9C13.457 14 13.9911 13.7629 14.3849 13.341C14.7788 12.919 15 12.3467 15 11.75V4.25C15 3.65326 14.7788 3.08097 14.3849 2.65901C13.9911 2.23705 13.457 2 12.9 2ZM3.1 3.5H12.9C13.0857 3.5 13.2637 3.57902 13.395 3.71967C13.5263 3.86032 13.6 4.05109 13.6 4.25L8 7.91L2.4 4.25C2.4 4.05109 2.47375 3.86032 2.60503 3.71967C2.7363 3.57902 2.91435 3.5 3.1 3.5ZM13.6 11.75C13.6 11.9489 13.5263 12.1397 13.395 12.2803C13.2637 12.421 13.0857 12.5 12.9 12.5H3.1C2.91435 12.5 2.7363 12.421 2.60503 12.2803C2.47375 12.1397 2.4 11.9489 2.4 11.75V5.96L7.636 9.3875C7.74241 9.45333 7.86312 9.48798 7.986 9.48798C8.10888 9.48798 8.22959 9.45333 8.336 9.3875L13.6 5.96V11.75Z"
      fill="currentColor" />
  </symbol>
  <symbol id="icon-star-active" viewBox="0 0 16 16">
    <g clip-path="url(#clip0_1591_5677)">
      <path
        d="M7.09749 1.89137C7.45972 1.13224 8.54028 1.13224 8.90251 1.89137L10.0704 4.33882C10.2162 4.64433 10.5066 4.85534 10.8422 4.89958L13.5308 5.25399C14.3647 5.36391 14.6986 6.39158 14.0885 6.97067L12.1218 8.83768C11.8763 9.07073 11.7653 9.41217 11.827 9.74502L12.3207 12.4115C12.4739 13.2386 11.5997 13.8737 10.8604 13.4725L8.47702 12.1789C8.1795 12.0174 7.8205 12.0174 7.52298 12.1789L5.13959 13.4725C4.40033 13.8737 3.52614 13.2386 3.67929 12.4115L4.17304 9.74502C4.23467 9.41217 4.12373 9.07073 3.87823 8.83768L1.91145 6.97067C1.30142 6.39158 1.63533 5.36391 2.46924 5.25399L5.15779 4.89958C5.4934 4.85534 5.78384 4.64433 5.92962 4.33882L7.09749 1.89137Z"
        fill="#F9BA00" />
    </g>
    <defs>
      <clipPath id="clip0_1591_5677">
        <rect width="16" height="16" fill="white" />
      </clipPath>
    </defs>
  </symbol>
  <symbol id="icon-star" viewBox="0 0 16 16">
    <g clip-path="url(#clip0_1591_5672)">
      <path
        d="M7.09749 1.89137C7.45972 1.13224 8.54028 1.13224 8.90251 1.89137L10.0704 4.33882C10.2162 4.64433 10.5066 4.85534 10.8422 4.89958L13.5308 5.25399C14.3647 5.36391 14.6986 6.39158 14.0885 6.97067L12.1218 8.83768C11.8763 9.07073 11.7653 9.41217 11.827 9.74502L12.3207 12.4115C12.4739 13.2386 11.5997 13.8737 10.8604 13.4725L8.47702 12.1789C8.1795 12.0174 7.8205 12.0174 7.52298 12.1789L5.13959 13.4725C4.40033 13.8737 3.52614 13.2386 3.67929 12.4115L4.17304 9.74502C4.23467 9.41217 4.12373 9.07073 3.87823 8.83768L1.91145 6.97067C1.30142 6.39158 1.63533 5.36391 2.46924 5.25399L5.15779 4.89958C5.4934 4.85534 5.78384 4.64433 5.92962 4.33882L7.09749 1.89137Z"
        fill="#E5E0FC" />
    </g>
    <defs>
      <clipPath id="clip0_1591_5672">
        <rect width="16" height="16" fill="white" />
      </clipPath>
    </defs>
  </symbol>
  <symbol id="icon-view-list" viewBox="0 0 16 16">
    <rect x="2" y="2" width="12" height="4" rx="1" stroke="currentColor" />
    <rect x="2" y="10" width="12" height="4" rx="1" stroke="currentColor" />
  </symbol>
  <symbol id="icon-view-grid" viewBox="0 0 16 16">
    <rect x="2" y="2" width="4" height="4" rx="1" stroke="currentColor" />
    <rect x="10" y="2" width="4" height="4" rx="1" stroke="currentColor" />
    <rect x="2" y="10" width="4" height="4" rx="1" stroke="currentColor" />
    <rect x="10" y="10" width="4" height="4" rx="1" stroke="currentColor" />
  </symbol>
  <symbol id="icon-calendar" viewBox="0 0 16 16">
    <path
      d="M10.4167 9C10.5714 9 10.7197 8.94732 10.8291 8.85355C10.9385 8.75979 11 8.63261 11 8.5C11 8.36739 10.9385 8.24021 10.8291 8.14645C10.7197 8.05268 10.5714 8 10.4167 8C10.262 8 10.1136 8.05268 10.0042 8.14645C9.89479 8.24021 9.83333 8.36739 9.83333 8.5C9.83333 8.63261 9.89479 8.75979 10.0042 8.85355C10.1136 8.94732 10.262 9 10.4167 9ZM10.4167 11C10.5714 11 10.7197 10.9473 10.8291 10.8536C10.9385 10.7598 11 10.6326 11 10.5C11 10.3674 10.9385 10.2402 10.8291 10.1464C10.7197 10.0527 10.5714 10 10.4167 10C10.262 10 10.1136 10.0527 10.0042 10.1464C9.89479 10.2402 9.83333 10.3674 9.83333 10.5C9.83333 10.6326 9.89479 10.7598 10.0042 10.8536C10.1136 10.9473 10.262 11 10.4167 11ZM8.08333 8.5C8.08333 8.63261 8.02187 8.75979 7.91248 8.85355C7.80308 8.94732 7.65471 9 7.5 9C7.34529 9 7.19692 8.94732 7.08752 8.85355C6.97812 8.75979 6.91667 8.63261 6.91667 8.5C6.91667 8.36739 6.97812 8.24021 7.08752 8.14645C7.19692 8.05268 7.34529 8 7.5 8C7.65471 8 7.80308 8.05268 7.91248 8.14645C8.02187 8.24021 8.08333 8.36739 8.08333 8.5ZM8.08333 10.5C8.08333 10.6326 8.02187 10.7598 7.91248 10.8536C7.80308 10.9473 7.65471 11 7.5 11C7.34529 11 7.19692 10.9473 7.08752 10.8536C6.97812 10.7598 6.91667 10.6326 6.91667 10.5C6.91667 10.3674 6.97812 10.2402 7.08752 10.1464C7.19692 10.0527 7.34529 10 7.5 10C7.65471 10 7.80308 10.0527 7.91248 10.1464C8.02187 10.2402 8.08333 10.3674 8.08333 10.5ZM4.58333 9C4.73804 9 4.88642 8.94732 4.99581 8.85355C5.10521 8.75979 5.16667 8.63261 5.16667 8.5C5.16667 8.36739 5.10521 8.24021 4.99581 8.14645C4.88642 8.05268 4.73804 8 4.58333 8C4.42862 8 4.28025 8.05268 4.17085 8.14645C4.06146 8.24021 4 8.36739 4 8.5C4 8.63261 4.06146 8.75979 4.17085 8.85355C4.28025 8.94732 4.42862 9 4.58333 9ZM4.58333 11C4.73804 11 4.88642 10.9473 4.99581 10.8536C5.10521 10.7598 5.16667 10.6326 5.16667 10.5C5.16667 10.3674 5.10521 10.2402 4.99581 10.1464C4.88642 10.0527 4.73804 10 4.58333 10C4.42862 10 4.28025 10.0527 4.17085 10.1464C4.06146 10.2402 4 10.3674 4 10.5C4 10.6326 4.06146 10.7598 4.17085 10.8536C4.28025 10.9473 4.42862 11 4.58333 11Z"
      fill="currentColor" />
    <path fill-rule="evenodd" clip-rule="evenodd"
      d="M5.2093 2C5.32032 2 5.4268 2.04515 5.5053 2.12553C5.5838 2.2059 5.62791 2.31491 5.62791 2.42857V2.86457C5.9974 2.85714 6.40428 2.85714 6.85191 2.85714H9.14754C9.59572 2.85714 10.0026 2.85714 10.3721 2.86457V2.42857C10.3721 2.31491 10.4162 2.2059 10.4947 2.12553C10.5732 2.04515 10.6797 2 10.7907 2C10.9017 2 11.0082 2.04515 11.0867 2.12553C11.1652 2.2059 11.2093 2.31491 11.2093 2.42857V2.90114C11.3544 2.91257 11.4917 2.92686 11.6218 2.94457C12.2759 3.03486 12.8056 3.22457 13.2236 3.652C13.6411 4.08 13.8264 4.62229 13.9146 5.292C14 5.94343 14 6.77486 14 7.82514V9.032C14 10.0823 14 10.9143 13.9146 11.5651C13.8264 12.2349 13.6411 12.7771 13.2236 13.2051C12.8056 13.6326 12.2759 13.8223 11.6218 13.9126C10.9855 14 10.1734 14 9.14754 14H6.85247C5.8266 14 5.01395 14 4.37823 13.9126C3.72409 13.8223 3.19442 13.6326 2.77637 13.2051C2.35888 12.7771 2.17358 12.2349 2.0854 11.5651C2 10.9137 2 10.0823 2 9.032V7.82514C2 6.77486 2 5.94286 2.0854 5.292C2.17358 4.62229 2.35888 4.08 2.77637 3.652C3.19442 3.22457 3.72409 3.03486 4.37823 2.94457C4.50828 2.92686 4.64614 2.91257 4.7907 2.90114V2.42857C4.7907 2.31491 4.8348 2.2059 4.9133 2.12553C4.99181 2.04515 5.09828 2 5.2093 2ZM4.4893 3.79429C3.92837 3.87143 3.60465 4.01657 3.36856 4.25829C3.13247 4.5 2.9907 4.83143 2.91535 5.40629C2.90251 5.50343 2.89191 5.60629 2.88298 5.71429H13.117C13.1081 5.60571 13.0975 5.50343 13.0847 5.40571C13.0093 4.83143 12.8675 4.5 12.6314 4.25829C12.3953 4.01657 12.0716 3.87143 11.5101 3.79429C10.9369 3.71543 10.1807 3.71429 9.11628 3.71429H6.88372C5.81935 3.71429 5.06363 3.71543 4.4893 3.79429ZM2.83721 7.85714C2.83721 7.36914 2.83721 6.94457 2.84447 6.57143H13.1555C13.1628 6.94457 13.1628 7.36914 13.1628 7.85714V9C13.1628 10.0897 13.1617 10.864 13.0847 11.4514C13.0093 12.0257 12.8675 12.3571 12.6314 12.5989C12.3953 12.8406 12.0716 12.9857 11.5101 13.0629C10.9369 13.1417 10.1807 13.1429 9.11628 13.1429H6.88372C5.81935 13.1429 5.06363 13.1417 4.4893 13.0629C3.92837 12.9857 3.60465 12.8406 3.36856 12.5989C3.13247 12.3571 2.9907 12.0257 2.91535 11.4509C2.83833 10.864 2.83721 10.0897 2.83721 9V7.85714Z"
      fill="currentColor" />
  </symbol>
  <symbol id="icon-pen" viewBox="0 0 16 16">
    <g clip-path="url(#clip0_1580_4816)">
      <path
        d="M12.1234 2.59627L12.2351 2.48452C12.3192 2.40046 12.4191 2.33379 12.5289 2.28831C12.6388 2.24284 12.7566 2.21945 12.8755 2.21948C12.9944 2.21952 13.1122 2.24297 13.222 2.28851C13.3319 2.33405 13.4317 2.40078 13.5157 2.4849C13.5998 2.56901 13.6665 2.66885 13.7119 2.77873C13.7574 2.88861 13.7808 3.00637 13.7808 3.12529C13.7807 3.2442 13.7573 3.36195 13.7117 3.4718C13.6662 3.58165 13.5995 3.68146 13.5154 3.76552L13.4036 3.87652C13.5948 4.09092 13.6967 4.37032 13.6885 4.65744C13.6802 4.94457 13.5625 5.21767 13.3594 5.42077L5.64036 13.1405C5.59211 13.1885 5.5317 13.2225 5.46561 13.2388L2.46561 13.9888C2.40283 14.0044 2.33707 14.0035 2.27473 13.9862C2.21239 13.9689 2.15558 13.9358 2.10983 13.89C2.06409 13.8443 2.03095 13.7875 2.01365 13.7252C1.99635 13.6628 1.99548 13.5971 2.01111 13.5343L2.76111 10.5343C2.77752 10.4685 2.81148 10.4083 2.85936 10.3603L10.0909 3.12877C10.0185 3.07787 9.93055 3.05417 9.84244 3.06185C9.75434 3.06954 9.67178 3.10812 9.60936 3.17077L7.14036 5.64052C7.1055 5.67539 7.0641 5.70304 7.01855 5.72191C6.97299 5.74078 6.92417 5.7505 6.87486 5.7505C6.82555 5.7505 6.77673 5.74078 6.73117 5.72191C6.68562 5.70304 6.64423 5.67539 6.60936 5.64052C6.5745 5.60566 6.54684 5.56426 6.52797 5.51871C6.5091 5.47315 6.49939 5.42433 6.49939 5.37502C6.49939 5.32571 6.5091 5.27689 6.52797 5.23133C6.54684 5.18578 6.5745 5.14439 6.60936 5.10952L9.07986 2.64052C9.28309 2.43728 9.5564 2.31954 9.84371 2.31145C10.131 2.30336 10.4105 2.40554 10.6249 2.59702C10.8309 2.41285 11.0976 2.31098 11.374 2.31084C11.6503 2.3107 11.9171 2.41231 12.1234 2.59627ZM11.6404 3.17077C11.57 3.10047 11.4747 3.06098 11.3752 3.06098C11.2758 3.06098 11.1804 3.10047 11.1101 3.17077L3.46236 10.817L2.88936 13.1098L5.18211 12.5368L12.8299 4.89052C12.8648 4.85569 12.8925 4.81431 12.9114 4.76875C12.9303 4.72319 12.94 4.67435 12.94 4.62502C12.94 4.5757 12.9303 4.52685 12.9114 4.4813C12.8925 4.43574 12.8648 4.39436 12.8299 4.35952L11.6404 3.17077Z"
        fill="#101750" />
    </g>
    <defs>
      <clipPath id="clip0_1580_4816">
        <rect width="12" height="12" fill="white" transform="translate(2 2)" />
      </clipPath>
    </defs>
  </symbol>
  <symbol id="icon-tick" viewBox="0 0 16 16">
    <path d="M2 8.5L5.5 12L14 3.5" stroke="currentColor" stroke-linecap="round"
      stroke-linejoin="round" />
  </symbol>
  <symbol id="icon-warning" viewBox="0 0 16 16">
    <path
      d="M8 2C11.3138 2 14 4.6862 14 8C14 11.3138 11.3138 14 8 14C4.6862 14 2 11.3138 2 8C2 4.6862 4.6862 2 8 2ZM8 3.2C6.72696 3.2 5.50606 3.70571 4.60589 4.60589C3.70571 5.50606 3.2 6.72696 3.2 8C3.2 9.27304 3.70571 10.4939 4.60589 11.3941C5.50606 12.2943 6.72696 12.8 8 12.8C9.27304 12.8 10.4939 12.2943 11.3941 11.3941C12.2943 10.4939 12.8 9.27304 12.8 8C12.8 6.72696 12.2943 5.50606 11.3941 4.60589C10.4939 3.70571 9.27304 3.2 8 3.2ZM8 9.8C8.15913 9.8 8.31174 9.86321 8.42426 9.97574C8.53679 10.0883 8.6 10.2409 8.6 10.4C8.6 10.5591 8.53679 10.7117 8.42426 10.8243C8.31174 10.9368 8.15913 11 8 11C7.84087 11 7.68826 10.9368 7.57574 10.8243C7.46321 10.7117 7.4 10.5591 7.4 10.4C7.4 10.2409 7.46321 10.0883 7.57574 9.97574C7.68826 9.86321 7.84087 9.8 8 9.8ZM8 4.4C8.15913 4.4 8.31174 4.46321 8.42426 4.57574C8.53679 4.68826 8.6 4.84087 8.6 5V8.6C8.6 8.75913 8.53679 8.91174 8.42426 9.02426C8.31174 9.13679 8.15913 9.2 8 9.2C7.84087 9.2 7.68826 9.13679 7.57574 9.02426C7.46321 8.91174 7.4 8.75913 7.4 8.6V5C7.4 4.84087 7.46321 4.68826 7.57574 4.57574C7.68826 4.46321 7.84087 4.4 8 4.4Z"
      fill="currentColor" />
  </symbol>
  <symbol id="icon-zoom" viewBox="0 0 16 16">
    <path
      d="M9.74982 6.83334H7.99982V5.08334C7.99982 4.92863 7.93836 4.78026 7.82897 4.67086C7.71957 4.56146 7.5712 4.50001 7.41649 4.50001C7.26178 4.50001 7.11341 4.56146 7.00401 4.67086C6.89461 4.78026 6.83316 4.92863 6.83316 5.08334V6.83334H5.08316C4.92845 6.83334 4.78007 6.8948 4.67068 7.00419C4.56128 7.11359 4.49982 7.26196 4.49982 7.41667C4.49982 7.57138 4.56128 7.71976 4.67068 7.82915C4.78007 7.93855 4.92845 8.00001 5.08316 8.00001H6.83316V9.75001C6.83316 9.90472 6.89461 10.0531 7.00401 10.1625C7.11341 10.2719 7.26178 10.3333 7.41649 10.3333C7.5712 10.3333 7.71957 10.2719 7.82897 10.1625C7.93836 10.0531 7.99982 9.90472 7.99982 9.75001V8.00001H9.74982C9.90453 8.00001 10.0529 7.93855 10.1623 7.82915C10.2717 7.71976 10.3332 7.57138 10.3332 7.41667C10.3332 7.26196 10.2717 7.11359 10.1623 7.00419C10.0529 6.8948 9.90453 6.83334 9.74982 6.83334ZM13.664 12.8358L11.4998 10.6892C12.3399 9.64175 12.7467 8.31226 12.6366 6.9741C12.5266 5.63593 11.908 4.3908 10.908 3.49471C9.90812 2.59863 8.60288 2.11972 7.26069 2.15645C5.91851 2.19317 4.64141 2.74275 3.69199 3.69217C2.74257 4.64159 2.19299 5.91869 2.15626 7.26088C2.11954 8.60306 2.59845 9.9083 3.49453 10.9082C4.39061 11.9081 5.63575 12.5267 6.97391 12.6368C8.31208 12.7469 9.64156 12.3401 10.689 11.5L12.8357 13.6467C12.8899 13.7013 12.9544 13.7447 13.0255 13.7744C13.0966 13.804 13.1728 13.8192 13.2498 13.8192C13.3268 13.8192 13.4031 13.804 13.4742 13.7744C13.5452 13.7447 13.6098 13.7013 13.664 13.6467C13.7691 13.5379 13.8279 13.3925 13.8279 13.2413C13.8279 13.09 13.7691 12.9446 13.664 12.8358ZM7.41649 11.5C6.60888 11.5 5.81941 11.2605 5.14791 10.8118C4.47641 10.3632 3.95304 9.72543 3.64398 8.9793C3.33492 8.23317 3.25406 7.41214 3.41162 6.62005C3.56917 5.82796 3.95807 5.10038 4.52914 4.52932C5.1002 3.95826 5.82778 3.56936 6.61987 3.4118C7.41196 3.25424 8.23298 3.33511 8.97911 3.64416C9.72525 3.95322 10.363 4.47659 10.8117 5.14809C11.2603 5.81959 11.4998 6.60907 11.4998 7.41667C11.4998 8.49964 11.0696 9.53825 10.3038 10.304C9.53807 11.0698 8.49946 11.5 7.41649 11.5Z"
      fill="currentColor" />

  </symbol>
  <symbol id="icon-search" viewBox="0 0 16 16">
    <path
      d="M13.8315 12.9884L11.6068 10.78C12.4704 9.70246 12.8886 8.33476 12.7754 6.95814C12.6623 5.58151 12.0264 4.30059 10.9985 3.37875C9.97062 2.45692 8.62888 1.96424 7.24917 2.00202C5.86946 2.03981 4.55665 2.60518 3.58069 3.58189C2.60472 4.5586 2.03978 5.8724 2.00202 7.25316C1.96427 8.63392 2.45657 9.97668 3.37771 11.0053C4.29884 12.034 5.57879 12.6704 6.95437 12.7836C8.32996 12.8968 9.69661 12.4783 10.7733 11.6141L12.98 13.8225C13.0358 13.8787 13.1021 13.9234 13.1752 13.9538C13.2482 13.9843 13.3266 14 13.4058 14C13.4849 14 13.5633 13.9843 13.6364 13.9538C13.7094 13.9234 13.7758 13.8787 13.8315 13.8225C13.9396 13.7106 14 13.5611 14 13.4054C14 13.2498 13.9396 13.1003 13.8315 12.9884ZM7.40932 11.6141C6.57914 11.6141 5.76759 11.3678 5.07732 10.9062C4.38704 10.4446 3.84904 9.78855 3.53134 9.02097C3.21364 8.25339 3.13051 7.40877 3.29247 6.59392C3.45444 5.77906 3.85421 5.03057 4.44124 4.4431C5.02827 3.85562 5.7762 3.45554 6.59043 3.29346C7.40467 3.13137 8.24865 3.21456 9.01564 3.5325C9.78263 3.85044 10.4382 4.38885 10.8994 5.07965C11.3607 5.77045 11.6068 6.58262 11.6068 7.41343C11.6068 8.52753 11.1646 9.59599 10.3774 10.3838C9.59022 11.1716 8.52257 11.6141 7.40932 11.6141Z"
      fill="currentColor" />
  </symbol>
  <symbol id="icon-cart" viewBox="0 0 16 16">
    <path
      d="M0.999023 1.59916C0.999023 1.44001 1.06225 1.28738 1.17478 1.17484C1.28732 1.06231 1.43995 0.999084 1.5991 0.999084H2.04556C2.80566 0.999084 3.26172 1.51035 3.52175 1.98561C3.69538 2.30245 3.82099 2.6697 3.91941 3.00255C3.94602 3.00045 3.97271 2.99938 3.99942 2.99935H13.9991C14.6632 2.99935 15.1433 3.63463 14.9608 4.27391L13.4983 9.40178C13.3671 9.86173 13.0897 10.2664 12.708 10.5546C12.3263 10.8427 11.8611 10.9987 11.3828 10.9988H6.62376C6.14169 10.9988 5.67296 10.8405 5.2896 10.5482C4.90625 10.2559 4.6295 9.84585 4.50188 9.38098L3.8938 7.16309L2.88567 3.76425L2.88487 3.75785C2.76005 3.30419 2.64324 2.87933 2.46882 2.56249C2.30159 2.25445 2.16718 2.19924 2.04636 2.19924H1.5991C1.43995 2.19924 1.28732 2.13602 1.17478 2.02348C1.06225 1.91095 0.999023 1.75831 0.999023 1.59916ZM5.05795 6.87185L5.65883 9.06334C5.77885 9.497 6.1733 9.79864 6.62376 9.79864H11.3828C11.6002 9.79863 11.8116 9.7278 11.9852 9.59685C12.1587 9.46591 12.2849 9.28199 12.3445 9.07294L13.7343 4.1995H4.26745L5.04675 6.82945L5.05795 6.87185Z"
      fill="currentColor" />
    <path
      d="M7.80003 13.4007C7.80003 13.8251 7.63143 14.2322 7.33134 14.5323C7.03124 14.8324 6.62422 15.001 6.19982 15.001C5.77542 15.001 5.3684 14.8324 5.0683 14.5323C4.7682 14.2322 4.59961 13.8251 4.59961 13.4007C4.59961 12.9763 4.7682 12.5693 5.0683 12.2692C5.3684 11.9691 5.77542 11.8005 6.19982 11.8005C6.62422 11.8005 7.03124 11.9691 7.33134 12.2692C7.63143 12.5693 7.80003 12.9763 7.80003 13.4007ZM6.59987 13.4007C6.59987 13.2946 6.55772 13.1929 6.4827 13.1179C6.40767 13.0428 6.30592 13.0007 6.19982 13.0007C6.09372 13.0007 5.99196 13.0428 5.91694 13.1179C5.84191 13.1929 5.79977 13.2946 5.79977 13.4007C5.79977 13.5068 5.84191 13.6086 5.91694 13.6836C5.99196 13.7587 6.09372 13.8008 6.19982 13.8008C6.30592 13.8008 6.40767 13.7587 6.4827 13.6836C6.55772 13.6086 6.59987 13.5068 6.59987 13.4007Z"
      fill="currentColor" />
    <path
      d="M13.4006 13.4007C13.4006 13.8251 13.232 14.2322 12.9319 14.5323C12.6318 14.8324 12.2248 15.001 11.8004 15.001C11.376 15.001 10.969 14.8324 10.6689 14.5323C10.3688 14.2322 10.2002 13.8251 10.2002 13.4007C10.2002 12.9763 10.3688 12.5693 10.6689 12.2692C10.969 11.9691 11.376 11.8005 11.8004 11.8005C12.2248 11.8005 12.6318 11.9691 12.9319 12.2692C13.232 12.5693 13.4006 12.9763 13.4006 13.4007ZM12.2005 13.4007C12.2005 13.2946 12.1583 13.1929 12.0833 13.1179C12.0083 13.0428 11.9065 13.0007 11.8004 13.0007C11.6943 13.0007 11.5925 13.0428 11.5175 13.1179C11.4425 13.1929 11.4004 13.2946 11.4004 13.4007C11.4004 13.5068 11.4425 13.6086 11.5175 13.6836C11.5925 13.7587 11.6943 13.8008 11.8004 13.8008C11.9065 13.8008 12.0083 13.7587 12.0833 13.6836C12.1583 13.6086 12.2005 13.5068 12.2005 13.4007Z"
      fill="currentColor" />
  </symbol>
  <symbol id="icon-heart-outline" viewBox="0 0 16 16">
    <path
      d="M13.7141 3.30182C12.9713 2.55413 11.9865 2.09955 10.9387 2.02074C9.89102 1.94192 8.84997 2.24411 8.00494 2.87236C7.11474 2.20608 6.00672 1.90396 4.90401 2.02683C3.80131 2.1497 2.78582 2.68844 2.06205 3.53456C1.33828 4.38068 0.959991 5.47133 1.00336 6.58688C1.04672 7.70243 1.50852 8.76001 2.29576 9.54665L7.50818 14.7917C7.57323 14.8577 7.65061 14.9101 7.73587 14.9459C7.82113 14.9816 7.91257 15 8.00494 15C8.0973 15 8.18875 14.9816 8.27401 14.9459C8.35927 14.9101 8.43665 14.8577 8.50169 14.7917L13.7141 9.54665C14.1218 9.13671 14.4452 8.64995 14.6658 8.11419C14.8864 7.57843 15 7.00418 15 6.42424C15 5.8443 14.8864 5.27004 14.6658 4.73428C14.4452 4.19852 14.1218 3.71177 13.7141 3.30182ZM12.7276 8.55396L8.00494 13.2992L3.28227 8.55396C2.8661 8.13343 2.5826 7.59861 2.46733 7.01657C2.35207 6.43454 2.41017 5.83121 2.63436 5.28228C2.85854 4.73335 3.23882 4.26325 3.72749 3.93097C4.21616 3.59868 4.79147 3.419 5.38123 3.41447C6.16912 3.41641 6.92404 3.73293 7.4802 4.29452C7.54524 4.3605 7.62262 4.41288 7.70788 4.44862C7.79314 4.48437 7.88459 4.50277 7.97695 4.50277C8.06931 4.50277 8.16076 4.48437 8.24602 4.44862C8.33128 4.41288 8.40866 4.3605 8.47371 4.29452C9.04625 3.79527 9.7859 3.53355 10.543 3.56233C11.3 3.59111 12.0179 3.90824 12.5514 4.44954C13.0849 4.99083 13.3941 5.71586 13.4164 6.47788C13.4387 7.23989 13.1725 7.98199 12.6716 8.55396H12.7276Z"
      fill="currentColor" />
  </symbol>
  <symbol id="chevron-right" viewBox="0 0 24 24">
    <path
      d="M10.1353 5.0018C9.87047 5.00135 9.61386 5.08254 9.40997 5.2313C9.29522 5.31506 9.20036 5.41793 9.13083 5.53402C9.0613 5.65011 9.01847 5.77714 9.00479 5.90782C8.9911 6.03851 9.00683 6.17029 9.05108 6.29562C9.09533 6.42094 9.16722 6.53735 9.26265 6.63818L14.3397 11.9863L9.44397 17.3444C9.34983 17.4465 9.27953 17.5639 9.23711 17.69C9.19469 17.8161 9.18099 17.9482 9.19679 18.079C9.21258 18.2097 9.25757 18.3364 9.32916 18.4518C9.40075 18.5672 9.49754 18.669 9.61396 18.7513C9.73121 18.8421 9.86853 18.9107 10.0173 18.9526C10.166 18.9945 10.323 19.0088 10.4784 18.9948C10.6337 18.9807 10.7841 18.9385 10.9201 18.8709C11.0561 18.8032 11.1747 18.7116 11.2685 18.6016L16.7422 12.6149C16.9089 12.4364 17 12.2124 17 11.9813C17 11.7502 16.9089 11.5263 16.7422 11.3477L11.0759 5.36101C10.9622 5.24026 10.8178 5.14481 10.6543 5.0824C10.4909 5.01999 10.3131 4.99238 10.1353 5.0018Z"
      fill="currentColor" />
  </symbol>
  <symbol id="icon-popular" viewBox="0 0 24 24">
    <path
      d="M19.5492 10.9969C19.0942 9.97279 18.4328 9.05362 17.6063 8.29688L16.9242 7.6711C16.9011 7.65043 16.8732 7.63577 16.843 7.62839C16.8129 7.62101 16.7814 7.62115 16.7513 7.62879C16.7212 7.63642 16.6935 7.65133 16.6705 7.67219C16.6475 7.69305 16.63 7.71924 16.6195 7.74844L16.3148 8.62266C16.125 9.1711 15.7758 9.73126 15.2812 10.282C15.2484 10.3172 15.2109 10.3266 15.1852 10.3289C15.1594 10.3313 15.1195 10.3266 15.0844 10.2938C15.0516 10.2656 15.0352 10.2234 15.0375 10.1813C15.1242 8.77032 14.7023 7.17891 13.7789 5.44688C13.0148 4.00782 11.9531 2.88516 10.6266 2.10235L9.65859 1.53282C9.53203 1.45782 9.37031 1.55626 9.37734 1.70391L9.42891 2.82891C9.46406 3.59766 9.375 4.27735 9.16406 4.84219C8.90625 5.5336 8.53594 6.17579 8.0625 6.75235C7.73302 7.15304 7.35959 7.51547 6.94922 7.83282C5.96087 8.59258 5.15722 9.5661 4.59844 10.6805C4.04103 11.8046 3.75068 13.0422 3.75 14.2969C3.75 15.4031 3.96797 16.4742 4.39922 17.4844C4.81562 18.457 5.41654 19.3396 6.16875 20.0836C6.92813 20.8336 7.80938 21.4242 8.79141 21.8344C9.80859 22.2609 10.8867 22.4766 12 22.4766C13.1133 22.4766 14.1914 22.2609 15.2086 21.8367C16.1882 21.429 17.079 20.8343 17.8312 20.0859C18.5906 19.3359 19.1859 18.4594 19.6008 17.4867C20.0314 16.4793 20.2523 15.3948 20.25 14.2992C20.25 13.1555 20.0156 12.0445 19.5492 10.9969Z"
      fill="currentColor" />
  </symbol>
  <symbol id="icon-wallet" viewBox="0 0 24 24">
    <path
      d="M19.2 7.2H4.20002V6.6L17.4 5.544V6.6H19.2V4.8C19.2 3.48 18.1308 2.5536 16.8252 2.7396L4.77602 4.4604C3.46922 4.6476 2.40002 5.88 2.40002 7.2V19.2C2.40002 19.8365 2.65288 20.447 3.10297 20.8971C3.55306 21.3471 4.1635 21.6 4.80002 21.6H19.2C19.8365 21.6 20.447 21.3471 20.8971 20.8971C21.3472 20.447 21.6 19.8365 21.6 19.2V9.6C21.6 8.96348 21.3472 8.35303 20.8971 7.90294C20.447 7.45285 19.8365 7.2 19.2 7.2ZM17.4 15.6072C17.1636 15.6071 16.9294 15.5605 16.711 15.4699C16.4926 15.3793 16.2941 15.2466 16.127 15.0794C15.9598 14.9121 15.8273 14.7136 15.7369 14.4951C15.6464 14.2766 15.5999 14.0425 15.6 13.806C15.6001 13.5695 15.6468 13.3354 15.7373 13.117C15.8279 12.8986 15.9606 12.7001 16.1278 12.533C16.2951 12.3658 16.4936 12.2332 16.7121 12.1428C16.9306 12.0524 17.1648 12.0059 17.4012 12.006C17.8788 12.0062 18.3367 12.196 18.6743 12.5338C19.0118 12.8716 19.2014 13.3296 19.2012 13.8072C19.2011 14.2847 19.0112 14.7427 18.6734 15.0802C18.3356 15.4178 17.8776 15.6074 17.4 15.6072Z"
      fill="currentColor" />

  </symbol>
  <symbol id="icon-location" viewBox="0 0 24 24">
    <path
      d="M12 1C14.3869 1 16.6761 1.99337 18.364 3.76159C20.0518 5.5298 21 7.92801 21 10.4286C21 14.934 18.0975 19.081 12.402 22.8776C12.2818 22.9575 12.1424 23 12 23C11.8576 23 11.7182 22.9575 11.598 22.8776C5.9025 19.081 3 14.934 3 10.4286C3 7.92801 3.94821 5.5298 5.63604 3.76159C7.32387 1.99337 9.61305 1 12 1ZM12 7.28576C11.2044 7.28576 10.4413 7.61689 9.87868 8.20629C9.31607 8.7957 9 9.5951 9 10.4286C9 11.2622 9.31607 12.0616 9.87868 12.651C10.4413 13.2404 11.2044 13.5715 12 13.5715C12.7956 13.5715 13.5587 13.2404 14.1213 12.651C14.6839 12.0616 15 11.2622 15 10.4286C15 9.5951 14.6839 8.7957 14.1213 8.20629C13.5587 7.61689 12.7956 7.28576 12 7.28576Z"
      fill="currentColor" />

  </symbol>
  <symbol id="icon-mail" viewBox="0 0 24 24">
    <path
      d="M19 4H5C4.20435 4 3.44129 4.31607 2.87868 4.87868C2.31607 5.44129 2 6.20435 2 7V17C2 17.7956 2.31607 18.5587 2.87868 19.1213C3.44129 19.6839 4.20435 20 5 20H19C19.7956 20 20.5587 19.6839 21.1213 19.1213C21.6839 18.5587 22 17.7956 22 17V7C22 6.20435 21.6839 5.44129 21.1213 4.87868C20.5587 4.31607 19.7956 4 19 4ZM19 6L12.5 10.47C12.348 10.5578 12.1755 10.604 12 10.604C11.8245 10.604 11.652 10.5578 11.5 10.47L5 6H19Z"
      fill="currentColor" />

  </symbol>
  <symbol id="icon-star" viewBox="0 0 24 24">
    <path
      d="M22.9419 8.89802C22.8727 8.6944 22.7454 8.51548 22.5758 8.38335C22.4061 8.25122 22.2014 8.17167 21.9871 8.15452L15.7159 7.65628L13.0022 1.64998C12.9158 1.45653 12.7752 1.29222 12.5974 1.17688C12.4197 1.06155 12.2124 1.00012 12.0004 1C11.7885 0.999884 11.5811 1.06109 11.4033 1.17623C11.2254 1.29137 11.0846 1.45552 10.998 1.64888L8.28427 7.65628L2.01313 8.15452C1.80243 8.17121 1.601 8.24824 1.43294 8.37639C1.26488 8.50455 1.1373 8.6784 1.06547 8.87715C0.993642 9.07591 0.9806 9.29114 1.02791 9.49711C1.07522 9.70308 1.18087 9.89106 1.33223 10.0386L5.96656 14.5557L4.32755 21.6519C4.27778 21.8667 4.29373 22.0915 4.37333 22.2971C4.45293 22.5028 4.5925 22.6797 4.77393 22.8051C4.95537 22.9304 5.17028 22.9983 5.3908 23C5.61131 23.0016 5.82724 22.937 6.01056 22.8145L12.0001 18.822L17.9896 22.8145C18.177 22.9389 18.398 23.0029 18.6228 22.998C18.8477 22.993 19.0656 22.9194 19.2474 22.7869C19.4291 22.6544 19.5659 22.4695 19.6394 22.2569C19.7129 22.0444 19.7195 21.8144 19.6583 21.598L17.6464 14.559L22.6361 10.0694C22.9628 9.7746 23.0827 9.31486 22.9419 8.89802Z"
      fill="#F59E0B" />

  </symbol>
  <symbol id="icon-village" viewBox="0 0 24 24">
    <path
      d="M7 21H4C3.45 21 3 20.55 3 20V8.69C3 8.27 3.25 7.9 3.64 7.75L14.64 3.52C14.7921 3.46132 14.9561 3.4407 15.118 3.45992C15.2798 3.47915 15.4345 3.53765 15.5686 3.63031C15.7027 3.72298 15.8121 3.84702 15.8873 3.99162C15.9624 4.13623 16.0012 4.29702 16 4.46V10H8C7.45 10 7 10.45 7 11V21ZM17 12H10C9.45 12 9 12.45 9 13V20C9 20.55 9.45 21 10 21H14V17C14 16.45 14.45 16 15 16C15.55 16 16 16.45 16 17V21H20C20.55 21 21 20.55 21 20V12C21 10.9 20.1 10 19 10C17.9 10 17 10.9 17 12Z"
      fill="currentColor" />

  </symbol>
  <symbol id="icon-apartment" viewBox="0 0 24 24">
    <path
      d="M17 11V5C17 3.9 16.1 3 15 3H9C7.9 3 7 3.9 7 5V7H5C3.9 7 3 7.9 3 9V19C3 20.1 3.9 21 5 21H11V17H13V21H19C20.1 21 21 20.1 21 19V13C21 11.9 20.1 11 19 11H17ZM7 19H5V17H7V19ZM7 15H5V13H7V15ZM7 11H5V9H7V11ZM11 15H9V13H11V15ZM11 11H9V9H11V11ZM11 7H9V5H11V7ZM15 15H13V13H15V15ZM15 11H13V9H15V11ZM15 7H13V5H15V7ZM19 19H17V17H19V19ZM19 15H17V13H19V15Z"
      fill="currentColor" />

  </symbol>
  <symbol id="chevron-left" viewBox="0 0 24 24">
    <path
      d="M13.8647 5.0018C14.1295 5.00135 14.3861 5.08254 14.59 5.2313C14.7048 5.31506 14.7996 5.41793 14.8692 5.53402C14.9387 5.65011 14.9815 5.77714 14.9952 5.90782C15.0089 6.03851 14.9932 6.17029 14.9489 6.29562C14.9047 6.42094 14.8328 6.53735 14.7374 6.63818L9.66033 11.9863L14.556 17.3444C14.6502 17.4465 14.7205 17.5639 14.7629 17.69C14.8053 17.8161 14.819 17.9482 14.8032 18.079C14.7874 18.2097 14.7424 18.3364 14.6708 18.4518C14.5992 18.5672 14.5025 18.669 14.386 18.7513C14.2688 18.8421 14.1315 18.9107 13.9827 18.9526C13.834 18.9945 13.677 19.0088 13.5216 18.9948C13.3663 18.9807 13.2159 18.9385 13.0799 18.8709C12.9439 18.8032 12.8253 18.7116 12.7315 18.6016L7.2578 12.6149C7.09112 12.4364 7 12.2124 7 11.9813C7 11.7502 7.09112 11.5263 7.2578 11.3477L12.9241 5.36101C13.0378 5.24026 13.1822 5.14481 13.3457 5.0824C13.5091 5.01999 13.6869 4.99238 13.8647 5.0018Z"
      fill="currentColor" />

  </symbol>
  <symbol id="icon-bed" viewBox="0 0 24 24">
    <path
      d="M17.85 11.0769C19.5535 11.0769 21 12.4964 21 14.3077V17.0769H19.65V18H18.75V17.0769H5.25V18H4.35V17.0769H3V14.3077C3 12.5606 4.39756 11.0769 6.15 11.0769H17.85ZM16.95 6C18.1599 6 19.2003 6.99766 19.2 8.30769L19.2003 10.5128C18.7911 10.2826 18.3332 10.1538 17.85 10.1538L16.95 10.1534C16.95 9.36294 16.319 8.76923 15.6 8.76923H12.9C12.5543 8.76923 12.2389 8.90253 12 9.12176C11.7615 8.9027 11.446 8.76923 11.1 8.76923H8.4C7.65457 8.76923 7.05024 9.38889 7.05 10.1534L6.15 10.1538C5.6669 10.1538 5.2092 10.2825 4.8 10.5126V8.30769C4.8 7.06673 5.77046 6 7.05 6H16.95ZM11.1 9.69208C11.3442 9.69208 11.55 9.92285 11.55 10.1538L7.95 10.1534C7.95 9.871 8.16922 9.69231 8.4 9.69231L11.1 9.69208ZM15.6 9.69541C15.8546 9.69207 16.0498 9.9169 16.05 10.1534H12.45C12.45 9.86697 12.6692 9.69231 12.9 9.69231L15.6 9.69541Z"
      fill="currentColor" />

  </symbol>
  <symbol id="icon-shower" viewBox="0 0 24 24">
    <path
      d="M19.9043 11.9665H4.09568C3.47311 11.9665 2.96649 12.4731 2.96649 13.0957C2.96649 13.7183 3.47311 14.2249 4.09568 14.2249H19.9043C20.5269 14.2249 21.0335 13.7183 21.0335 13.0957C21.0335 12.4731 20.5269 11.9665 19.9043 11.9665Z"
      fill="currentColor" />
    <path
      d="M20.0081 13.4864C19.8041 13.4292 19.5994 13.5451 19.5429 13.7454L19.5136 13.8485H4.48707L4.45697 13.7454C4.40051 13.5451 4.19426 13.4307 3.99175 13.4864C3.79149 13.5436 3.67631 13.7522 3.73355 13.9516L4.77088 17.5831C5.09231 18.7085 6.1342 19.4944 7.30404 19.4944H16.6951C17.8657 19.4944 18.9068 18.7085 19.2283 17.5831L20.2656 13.9516C20.3236 13.7521 20.2076 13.5436 20.0081 13.4864ZM7.30478 17.9888C6.80342 17.9888 6.35626 17.6523 6.21924 17.1698L5.73069 15.4579C5.67349 15.2577 5.78941 15.0499 5.98889 14.9927C6.19063 14.9355 6.39766 15.0522 6.45412 15.2517L6.94267 16.9635C6.98935 17.1239 7.13763 17.2368 7.30475 17.2368C7.51252 17.2368 7.68115 17.4054 7.68115 17.6132C7.68119 17.821 7.51255 17.9888 7.30478 17.9888Z"
      fill="currentColor" />
    <path
      d="M8.02756 18.7808C7.84163 18.6897 7.61653 18.7627 7.52242 18.9494L6.76964 20.455C6.67705 20.6409 6.75231 20.8668 6.93828 20.9601C6.99322 20.9872 7.05046 21 7.10692 21C7.24468 21 7.37718 20.924 7.44341 20.7915L8.1962 19.2859C8.28879 19.0999 8.21349 18.8741 8.02756 18.7808Z"
      fill="currentColor" />
    <path
      d="M17.2304 20.4557L16.4776 18.9501C16.3843 18.7634 16.1584 18.6889 15.9725 18.7815C15.7865 18.8748 15.7112 19.1007 15.8038 19.2866L16.5566 20.7922C16.6228 20.924 16.7553 21 16.8931 21C16.9496 21 17.0068 20.9872 17.0617 20.9609C17.2477 20.8675 17.323 20.6417 17.2304 20.4557Z"
      fill="currentColor" />
    <path
      d="M18.0863 3C17.7024 3 17.341 3.14979 17.0693 3.42158L15.8746 4.61626C15.7278 4.76305 15.7278 5.0017 15.8746 5.14849C16.0214 5.29529 16.2601 5.29529 16.4069 5.14849L17.6015 3.95455C17.7302 3.82508 17.9026 3.75356 18.0901 3.75356C18.4679 3.75356 18.7751 4.0607 18.7751 4.43858V12.3429C18.7751 12.5507 18.9437 12.7193 19.1515 12.7193C19.3593 12.7193 19.5279 12.5507 19.5286 12.3422V4.43784C19.5287 3.64515 18.8843 3 18.0863 3Z"
      fill="currentColor" />
    <path
      d="M16.7832 4.99265L16.0304 4.23987C15.9446 4.15406 15.8249 4.11415 15.7029 4.13447L13.821 4.44313C13.6825 4.46571 13.5688 4.56356 13.5244 4.69607C13.4799 4.82857 13.5138 4.9761 13.6117 5.07621L15.8701 7.40234C15.9416 7.47687 16.0402 7.51678 16.1396 7.51678C16.175 7.51678 16.2111 7.51152 16.2465 7.50097C16.3804 7.46183 16.4821 7.35117 16.5092 7.21415L16.8856 5.33219C16.9104 5.20946 16.872 5.08221 16.7832 4.99265Z"
      fill="currentColor" />
    <path
      d="M11.8893 7.56041C11.7425 7.41362 11.5039 7.41362 11.3571 7.56041L10.6043 8.31319C10.4575 8.45999 10.4575 8.69864 10.6043 8.84543C10.6781 8.91844 10.7744 8.95535 10.8708 8.95535C10.9672 8.95535 11.0635 8.91847 11.1365 8.84543L11.8893 8.09265C12.0361 7.94582 12.0361 7.70721 11.8893 7.56041Z"
      fill="currentColor" />
    <path
      d="M13.3949 9.06597C13.2481 8.91917 13.0094 8.91917 12.8626 9.06597L12.1099 9.81875C11.9631 9.96554 11.9631 10.2042 12.1099 10.351C12.1836 10.424 12.28 10.4609 12.3763 10.4609C12.4727 10.4609 12.569 10.424 12.6421 10.351L13.3949 9.5982C13.5417 9.45141 13.5417 9.21276 13.3949 9.06597Z"
      fill="currentColor" />
    <path
      d="M14.1477 6.80759C14.0009 6.6608 13.7623 6.6608 13.6155 6.80759L12.8627 7.56037C12.7159 7.70717 12.7159 7.94581 12.8627 8.09261C12.9365 8.16562 13.0328 8.20253 13.1292 8.20253C13.2256 8.20253 13.3219 8.16565 13.395 8.09261L14.1477 7.33983C14.2945 7.19303 14.2945 6.95439 14.1477 6.80759Z"
      fill="currentColor" />

  </symbol>
  <symbol id="icon-carport" viewBox="0 0 24 24">
    <path
      d="M20.5378 7.97141L13.0177 3.28445C12.3982 2.90186 11.5998 2.90577 10.9839 3.29267L3.45608 7.97532C2.98863 8.26911 2.85947 8.86882 3.167 9.31479C3.47494 9.76075 4.10311 9.88437 4.57097 9.59019L12.0078 4.96387L19.4356 9.5941C19.6062 9.69934 19.7969 9.74902 19.9855 9.74902C20.3184 9.74902 20.6432 9.59371 20.8371 9.30814C21.1414 8.85982 21.0069 8.26207 20.5378 7.97141Z"
      fill="currentColor" />
    <path
      d="M18.158 14.0648C18.1005 13.7273 17.8143 13.4776 17.4806 13.4776H17.097L16.9512 11.9222C16.7956 10.2586 15.4488 8.99998 13.8186 8.99998H10.182C8.55138 8.99998 7.20499 10.259 7.04897 11.9222L6.9036 13.4776H6.51962C6.1855 13.4776 5.89971 13.7273 5.84149 14.0648L5.27066 17.3826C5.19988 17.7938 5.31328 18.2171 5.5751 18.5362C5.82703 18.8437 6.19806 19.027 6.58622 19.0407V19.5916C6.58622 20.3715 7.19586 21 7.95734 21H8.39041C9.15112 21 9.7699 20.3715 9.7699 19.5916V19.0497H14.2345V19.5904C14.2345 20.3707 14.8483 21 15.609 21H16.0425C16.8032 21 17.4178 20.3707 17.4178 19.5904V19.0407C17.806 19.027 18.1747 18.8452 18.4259 18.5382C18.6877 18.2183 18.7996 17.7973 18.7296 17.3853L18.158 14.0648ZM7.79294 17.77C7.15096 17.77 6.63037 17.2367 6.63037 16.5777C6.63037 15.9188 7.15096 15.3851 7.79294 15.3851C8.43531 15.3851 8.95628 15.9184 8.95628 16.5777C8.95628 17.2367 8.43531 17.77 7.79294 17.77ZM8.08292 13.4776L8.21726 12.0427C8.31506 10.9995 9.1595 10.2137 10.182 10.2137H10.3917V10.6647C10.3917 11.056 10.695 11.3678 11.0763 11.3678H12.9243C13.3056 11.3678 13.6142 11.056 13.6142 10.6647V10.2141H13.8186C14.8411 10.2141 15.6855 10.9999 15.783 12.0431L15.9177 13.478L8.08292 13.4776ZM16.2061 17.77C15.5641 17.77 15.0436 17.2367 15.0436 16.5777C15.0436 15.9188 15.5641 15.3851 16.2061 15.3851C16.8485 15.3851 17.3695 15.9184 17.3695 16.5777C17.3695 17.2367 16.8485 17.77 16.2061 17.77Z"
      fill="currentColor" />

  </symbol>
  <symbol id="icon-stairs" viewBox="0 0 24 24">
    <path
      d="M20.0913 6.75005H16.8243C16.3223 6.75005 15.9155 7.15254 15.9155 7.64971V9.98517H13.5569C13.0548 9.98517 12.648 10.3875 12.648 10.8847V13.2203H10.2894C9.78728 13.2203 9.38064 13.6233 9.38064 14.1199V16.568H6.90879C6.66759 16.568 6.43646 16.6627 6.26611 16.8312C6.09562 16.9999 6 17.2298 6 17.4676L6.00029 19.3499C6.00029 19.8476 6.40723 20.25 6.90904 20.25H20.0913C20.5934 20.25 21 19.8476 21 19.3499V7.64968C21.0001 7.15254 20.5934 6.75005 20.0913 6.75005Z"
      fill="currentColor" />
    <path
      d="M15.573 3.93402C15.3318 3.69296 14.9368 3.68833 14.6897 3.92287C10.6823 7.72916 6.86987 11.4468 3.18307 15.0412C3.06576 15.1556 3 15.311 3 15.4722V19.6408C3 19.9767 3.27959 20.25 3.6247 20.25C3.96948 20.25 4.24956 19.9768 4.24956 19.6408V15.7243C7.87653 12.1878 11.6263 8.53351 15.5614 4.79531C15.8083 4.56081 15.8134 4.17494 15.573 3.93402Z"
      fill="currentColor" />

  </symbol>
  <symbol id="icon-phone" viewBox="0 0 16 16">
    <path
      d="M11.1967 15H11.2164C11.586 15 11.9353 14.8544 12.1999 14.5898L14.0984 12.6913C14.1634 12.6263 14.215 12.5492 14.2503 12.4643C14.2855 12.3793 14.3036 12.2883 14.3036 12.1964C14.3036 12.1044 14.2855 12.0134 14.2503 11.9285C14.215 11.8435 14.1634 11.7664 14.0984 11.7014L11.2983 8.90129C11.2333 8.83623 11.1562 8.78461 11.0712 8.74939C10.9863 8.71417 10.8953 8.69604 10.8033 8.69604C10.7114 8.69604 10.6204 8.71417 10.5354 8.74939C10.4505 8.78461 10.3734 8.83623 10.3084 8.90129L9.19257 10.0171C8.67525 9.86314 7.70991 9.51313 7.09809 8.90129C6.48627 8.28946 6.13625 7.32412 5.98225 6.80679L7.09809 5.69093C7.16315 5.62598 7.21477 5.54883 7.24999 5.46391C7.28521 5.37898 7.30334 5.28795 7.30334 5.19601C7.30334 5.10407 7.28521 5.01304 7.24999 4.92811C7.21477 4.84319 7.16315 4.76604 7.09809 4.70109L4.29798 1.90094C4.16415 1.77463 3.98709 1.70426 3.80306 1.70426C3.61903 1.70426 3.44197 1.77463 3.30814 1.90094L1.41037 3.79944C1.14436 4.06545 0.994551 4.43087 1.00015 4.80399C1.01625 5.80084 1.28016 9.26321 4.00887 11.9919C6.73758 14.7207 10.1999 14.9839 11.1967 15ZM3.80376 3.38572L5.61403 5.19601L4.7089 6.10115C4.62653 6.1833 4.56602 6.28474 4.53288 6.39625C4.49975 6.50776 4.49504 6.62579 4.51919 6.73959C4.53599 6.82009 4.94691 8.72909 6.10895 9.89114C7.271 11.0532 9.17997 11.4641 9.26047 11.4809C9.37426 11.5052 9.49233 11.5006 9.60386 11.4674C9.71539 11.4343 9.81683 11.3737 9.8989 11.2912L10.804 10.3861L12.6143 12.1964L11.21 13.5999C10.3364 13.5852 7.3473 13.3507 4.99871 11.0014C2.64242 8.64508 2.41421 5.64543 2.40021 4.78929L3.80376 3.38572ZM13.5999 7.29961H15C15 3.70844 12.2888 1 8.69275 1V2.40007C11.5363 2.40007 13.5999 4.46027 13.5999 7.29961Z"
      fill="currentColor" />
    <path
      d="M9.5 3.52148C10.4423 3.60117 11.1379 3.90942 11.6143 4.38574C12.0906 4.86207 12.3988 5.55765 12.4785 6.5H11.875C11.8119 5.81933 11.6098 5.24063 11.1846 4.81543C10.7594 4.39021 10.1807 4.18709 9.5 4.12402V3.52148Z"
      stroke="currentColor" />
  </symbol>
  <symbol id="icon-cookies" viewBox="0 0 24 24">
    <path fill-rule="evenodd" clip-rule="evenodd"
      d="M18.3323 1.95686C18.8813 1.95686 19.3272 2.40497 19.3272 2.95674C19.3272 3.5085 18.8813 3.95661 18.3323 3.95661C17.7834 3.95661 17.3375 3.5085 17.3375 2.95674C17.3392 2.40497 17.7834 1.95686 18.3323 1.95686ZM18.5985 10.6648C19.4569 11.9522 20.5432 12.3468 21.9539 11.4757C22.0005 11.9606 22.0121 12.4555 21.9872 12.9571C21.7094 18.5016 17.0131 22.7703 11.4968 22.491C5.98213 22.2101 1.73508 17.49 2.01289 11.9472C2.28904 6.40278 7.14828 2.08728 12.663 2.36651C12.1739 3.90478 12.5881 5.27082 13.8324 5.73565C12.7045 9.37732 15.2232 11.76 18.5985 10.6648ZM6.99523 9.94748C7.82202 9.94748 8.49077 10.6213 8.49077 11.4506C8.49077 12.28 7.82035 12.9538 6.99523 12.9538C6.16845 12.9538 5.4997 12.28 5.4997 11.4506C5.4997 10.6213 6.17011 9.94748 6.99523 9.94748ZM11.7064 11.8636C12.1822 11.8636 12.5681 12.2515 12.5681 12.7297C12.5681 13.2079 12.1822 13.5958 11.7064 13.5958C11.2306 13.5958 10.8447 13.2079 10.8447 12.7297C10.843 12.2515 11.229 11.8636 11.7064 11.8636ZM7.96675 15.4317C8.54733 15.4317 9.01811 15.9049 9.01811 16.4885C9.01811 17.072 8.54733 17.5452 7.96675 17.5452C7.38617 17.5452 6.91538 17.072 6.91538 16.4885C6.91538 15.9032 7.38617 15.4317 7.96675 15.4317ZM10.2325 7.34581C10.6883 7.34581 11.056 7.717 11.056 8.17346C11.056 8.6316 10.6867 9.00111 10.2325 9.00111C9.77669 9.00111 9.40905 8.62992 9.40905 8.17346C9.40905 7.717 9.77836 7.34581 10.2325 7.34581ZM14.7075 15.8013C15.471 15.8013 16.0882 16.4232 16.0882 17.189C16.0882 17.9565 15.4694 18.5768 14.7075 18.5768C13.9439 18.5768 13.3267 17.9548 13.3267 17.189C13.3267 16.4232 13.9456 15.8013 14.7075 15.8013ZM17.6154 5.81925C18.1277 5.81925 18.5436 6.23725 18.5436 6.75224C18.5436 7.26722 18.1277 7.68523 17.6154 7.68523C17.103 7.68523 16.6871 7.26722 16.6871 6.75224C16.6871 6.23725 17.103 5.81925 17.6154 5.81925Z"
      fill="currentColor" />

  </symbol>
  <symbol id="icon-cross" viewBox="0 0 24 24">
    <path d="M4.92896 4.92892L19.0711 19.0711" stroke="currentColor" stroke-width="2"
      stroke-linecap="round" stroke-linejoin="round" />
    <path d="M19.071 4.92896L4.92891 19.0711" stroke="currentColor" stroke-width="2"
      stroke-linecap="round" stroke-linejoin="round" />
  </symbol>
  <symbol id="icon-check" viewBox="0 0 24 24">
    <path d="M2.00003 12L8.03482 18L22 5" stroke="#1B1C57" stroke-width="2" stroke-linecap="round" />

  </symbol>
  <symbol id="icon-menu" viewBox="0 0 24 24">
    <path d="M2 4H22" stroke="#1B1C57" stroke-width="2" stroke-linecap="round"
      stroke-linejoin="round" />
    <path d="M2 12H22" stroke="#1B1C57" stroke-width="2" stroke-linecap="round"
      stroke-linejoin="round" />
    <path d="M2 20H22" stroke="#1B1C57" stroke-width="2" stroke-linecap="round"
      stroke-linejoin="round" />

  </symbol>
</svg>